<svg xmlns="http://www.w3.org/2000/svg" xmlns:xlink="http://www.w3.org/1999/xlink" width="504.507" height="427.234" viewBox="0 0 504.507 427.234"><defs><style>.a{fill:#dcf7f7;}.ah,.an,.b,.c,.x,.y{fill:none;stroke-miterlimit:10;}.b,.c{stroke:#cbddf7;}.b{stroke-width:0.612px;}.c{stroke-linecap:round;stroke-width:1.224px;}.d{fill:#ddd;}.e{fill:#bcbcbc;}.f{fill:#ffd41d;}.g{fill:#99735e;}.h{fill:#e59470;}.i{fill:#f7a616;}.j{fill:#ffb83b;}.k{fill:#e8613d;}.l{fill:#9fbdf9;}.m{fill:#92b6ea;}.n{fill:#82a5d8;}.o{fill:#362d70;}.p,.q{fill:#c7d6e2;}.q{mix-blend-mode:soft-light;isolation:isolate;}.r{fill:#a3a0d8;}.s{fill:#bfb8f4;}.t{fill:#d6d4ff;}.u{fill:#594a5f;}.v{fill:#4c4051;}.w{fill:#c1efef;}.x,.y{stroke:#fff;}.x{stroke-width:1.349px;}.y{stroke-width:1.159px;}.z{fill:#7ee8d4;}.aa{fill:url(#a);}.ab{fill:url(#c);}.ac{fill:rgba(96,132,164,0.17);}.ad{fill:#f7b59c;}.ae{fill:#3dd1f9;}.af{fill:#209dba;}.ag{fill:#383874;}.ah{stroke:#222251;stroke-width:1.041px;}.ai{fill:#ffbe9d;}.aj{fill:#ffb948;}.ak{fill:#f3feff;}.al{fill:#fcb392;}.am{fill:#ff8f33;}.an{stroke:#f9973e;stroke-width:0.806px;}.ao{fill:#58b8dd;}.ap{fill:#83cdf2;}.aq{fill:#88aae2;}.ar{fill:#8fb2ea;}.as{fill:#fff;}.at{fill:#e2e8e8;}.au{fill:#cad8d8;}</style><linearGradient id="a" x1="0.5" x2="0.5" y2="1" gradientUnits="objectBoundingBox"><stop offset="0" stop-color="#23bdb8"/><stop offset="1" stop-color="#43e794"/></linearGradient><linearGradient id="c" x1="0.296" y1="0.115" x2="1.061" y2="1.528" gradientUnits="objectBoundingBox"><stop offset="0" stop-color="#c8f4f5"/><stop offset="1" stop-color="#c9c9c9"/></linearGradient></defs><g transform="translate(-165 -231.694)"><path class="a" d="M192.161,65.912H181.176V51.265a51.265,51.265,0,0,0-102.529,0V65.912H67.662A3.66,3.66,0,0,0,64,69.574v91.544a14.661,14.661,0,0,0,14.647,14.647H181.176a14.661,14.661,0,0,0,14.647-14.647V69.574A3.66,3.66,0,0,0,192.161,65.912ZM140.876,142.4a3.663,3.663,0,0,1-3.64,4.066H122.588a3.662,3.662,0,0,1-3.64-4.066l2.31-20.772a14.487,14.487,0,0,1-5.993-11.779,14.647,14.647,0,0,1,29.295,0,14.487,14.487,0,0,1-5.993,11.779Zm18.33-76.493H100.618V51.265a29.294,29.294,0,1,1,58.588,0Z" transform="translate(374.347 296.38)"/><g transform="translate(138.677 210.652)"><g transform="translate(242.405 21.348)"><path class="b" d="M237.86,21.348H135.7a7.1,7.1,0,0,0-7.045,6.19l-5.6,43.236a.506.506,0,0,0,.878.4l14.055-15.7a7.1,7.1,0,0,1,5.292-2.366h89.86a7.1,7.1,0,0,0,7.037-6.136L242.9,27.134A5.092,5.092,0,0,0,237.86,21.348Z" transform="translate(-123.055 -21.348)"/><g transform="translate(20.632 8.826)"><line class="c" x2="28.3" transform="translate(1.737)"/><line class="c" x2="19.018" transform="translate(0 15.165)"/><line class="c" x2="49.518" transform="translate(38.086)"/><line class="c" x2="47.261" transform="translate(0.541 7.079)"/></g></g><g transform="translate(56.339 176.989)"><g transform="translate(16.291 0)"><rect class="d" width="8.574" height="71.77" transform="translate(8.571 71.981) rotate(-178.407)"/><g transform="translate(0.066 2.464)"><rect class="e" width="3.272" height="0.602" transform="matrix(-1, -0.028, 0.028, -1, 5.115, 0.692)"/><rect class="e" width="3.272" height="0.602" transform="translate(5.071 2.271) rotate(-178.406)"/><rect class="e" width="3.272" height="0.602" transform="matrix(-1, -0.028, 0.028, -1, 5.027, 3.85)"/><rect class="e" width="3.272" height="0.602" transform="translate(4.939 7.008) rotate(-178.406)"/><rect class="e" width="3.272" height="0.602" transform="matrix(-1, -0.028, 0.028, -1, 4.895, 8.586)"/><rect class="e" width="3.272" height="0.602" transform="translate(4.851 10.165) rotate(-178.406)"/><rect class="e" width="3.272" height="0.602" transform="translate(4.763 13.323) rotate(-178.408)"/><rect class="e" width="3.272" height="0.602" transform="translate(4.72 14.901) rotate(-178.408)"/><rect class="e" width="3.272" height="0.602" transform="matrix(-1, -0.028, 0.028, -1, 4.676, 16.48)"/><rect class="e" width="3.272" height="0.602" transform="matrix(-1, -0.028, 0.028, -1, 4.588, 19.638)"/><rect class="e" width="3.272" height="0.602" transform="translate(4.544 21.217) rotate(-178.408)"/><rect class="e" width="3.272" height="0.602" transform="translate(4.5 22.795) rotate(-178.406)"/><rect class="e" width="3.272" height="0.602" transform="translate(4.412 25.953) rotate(-178.406)"/><rect class="e" width="3.272" height="0.602" transform="translate(4.368 27.532) rotate(-178.408)"/><rect class="e" width="3.272" height="0.602" transform="translate(4.324 29.11) rotate(-178.408)"/><rect class="e" width="3.272" height="0.602" transform="matrix(-1, -0.028, 0.028, -1, 4.236, 32.268)"/><rect class="e" width="3.272" height="0.602" transform="translate(4.193 33.847) rotate(-178.406)"/><rect class="e" width="3.272" height="0.602" transform="translate(4.149 35.425) rotate(-178.408)"/><rect class="e" width="3.272" height="0.602" transform="translate(4.061 38.583) rotate(-178.406)"/><rect class="e" width="3.272" height="0.602" transform="matrix(-1, -0.028, 0.028, -1, 4.017, 40.162)"/><rect class="e" width="3.272" height="0.602" transform="translate(3.973 41.741) rotate(-178.406)"/><rect class="e" width="3.272" height="0.602" transform="translate(3.885 44.898) rotate(-178.406)"/><rect class="e" width="3.272" height="0.602" transform="translate(3.841 46.477) rotate(-178.406)"/><rect class="e" width="3.272" height="0.602" transform="matrix(-1, -0.028, 0.028, -1, 3.797, 48.056)"/><rect class="e" width="3.272" height="0.602" transform="translate(3.709 51.213) rotate(-178.408)"/><rect class="e" width="3.272" height="0.602" transform="translate(3.665 52.792) rotate(-178.406)"/><rect class="e" width="3.272" height="0.602" transform="translate(3.622 54.371) rotate(-178.403)"/><rect class="e" width="3.272" height="0.602" transform="translate(3.534 57.528) rotate(-178.406)"/><rect class="e" width="3.272" height="0.602" transform="translate(3.49 59.107) rotate(-178.408)"/><rect class="e" width="3.272" height="0.602" transform="translate(3.446 60.686) rotate(-178.406)"/><rect class="e" width="3.272" height="0.602" transform="matrix(-1, -0.028, 0.028, -1, 3.358, 63.844)"/><rect class="e" width="3.272" height="0.602" transform="translate(3.314 65.422) rotate(-178.408)"/><rect class="e" width="3.272" height="0.602" transform="translate(3.27 67.001) rotate(-178.408)"/></g><g transform="translate(0.022 0.886)"><rect class="e" width="4.776" height="0.602" transform="translate(4.95 63.885) rotate(-178.406)"/><rect class="e" width="4.776" height="0.602" transform="translate(4.774 70.2) rotate(-178.406)"/><rect class="e" width="4.776" height="0.602" transform="matrix(-1, -0.028, 0.028, -1, 6.706, 0.734)"/><rect class="e" width="4.776" height="0.602" transform="matrix(-1, -0.028, 0.028, -1, 6.531, 7.049)"/><rect class="e" width="4.776" height="0.602" transform="matrix(-1, -0.028, 0.028, -1, 6.355, 13.364)"/><rect class="e" width="4.776" height="0.602" transform="translate(6.179 19.679) rotate(-178.406)"/><rect class="e" width="4.776" height="0.602" transform="matrix(-1, -0.028, 0.028, -1, 6.004, 25.995)"/><rect class="e" width="4.776" height="0.602" transform="translate(5.828 32.31) rotate(-178.406)"/><rect class="e" width="4.776" height="0.602" transform="translate(5.652 38.625) rotate(-178.406)"/><rect class="e" width="4.776" height="0.602" transform="translate(5.477 44.94) rotate(-178.406)"/><rect class="e" width="4.776" height="0.602" transform="matrix(-1, -0.028, 0.028, -1, 5.301, 51.255)"/><rect class="e" width="4.776" height="0.602" transform="matrix(-1, -0.028, 0.028, -1, 5.125, 57.57)"/></g></g><g transform="translate(20.773 15.423)"><rect class="f" width="3.61" height="51.22" transform="matrix(-0.987, -0.159, 0.159, -0.987, 3.565, 53.77)"/><rect class="g" width="3.61" height="0.674" transform="translate(11.722 3.204) rotate(-170.834)"/><path class="f" d="M70.218,99l3.565.574.071-.445a1.805,1.805,0,0,0-1.494-2.071h0a1.8,1.8,0,0,0-2.069,1.494Z" transform="translate(-61.953 -97.032)"/><path class="h" d="M66.519,120.843l.541,2.086.582,2.288,1.27-1.977,1.171-1.822Z" transform="translate(-66.517 -67.653)"/><path class="f" d="M66.761,121.817l.581,2.287,1.271-1.977a2.323,2.323,0,0,0-.907-.355A2.4,2.4,0,0,0,66.761,121.817Z" transform="translate(-66.219 -66.54)"/><rect class="i" width="1.805" height="51.22" transform="matrix(-0.987, -0.159, 0.159, -0.987, 1.782, 53.483)"/><rect class="j" width="1.805" height="51.22" transform="matrix(-0.987, -0.159, 0.159, -0.987, 2.673, 53.627)"/></g><g transform="translate(0 13.157)"><rect class="f" width="3.61" height="51.22" transform="translate(0 4.37) rotate(-9.229)"/><rect class="g" width="3.61" height="0.674" transform="translate(8.216 54.927) rotate(-9.232)"/><path class="k" d="M64.51,120.644l-3.565.581.074.445a1.8,1.8,0,0,0,2.071,1.492h0a1.806,1.806,0,0,0,1.492-2.071Z" transform="translate(-52.622 -65.632)"/><path class="h" d="M60.782,99.814,59.611,98l-1.274-1.987-.581,2.277-.537,2.1Z" transform="translate(-57.219 -96.016)"/><path class="f" d="M59.315,98.005l-1.273-1.988L57.459,98.3a2.323,2.323,0,0,0,.972.049A2.431,2.431,0,0,0,59.315,98.005Z" transform="translate(-56.923 -96.017)"/><rect class="i" width="1.805" height="51.22" transform="translate(1.781 4.081) rotate(-9.232)"/><rect class="j" width="1.805" height="51.22" transform="matrix(0.987, -0.16, 0.16, 0.987, 0.89, 4.226)"/></g><g transform="translate(13.116 4.941)"><rect class="l" width="3.61" height="51.22" transform="translate(0 4.225) rotate(-3.083)"/><rect class="g" width="3.61" height="0.674" transform="translate(2.754 55.371) rotate(-3.081)"/><path class="k" d="M67.944,117.341l-3.605.194.025.449a1.806,1.806,0,0,0,1.9,1.707h0a1.805,1.805,0,0,0,1.7-1.9Z" transform="translate(-61.55 -61.491)"/><path class="h" d="M66.7,96.375l-.971-1.924-1.054-2.112-.821,2.2-.758,2.029Z" transform="translate(-63.089 -92.339)"/><path class="m" d="M65.305,94.452l-1.054-2.113-.82,2.2a2.293,2.293,0,0,0,.961.152A2.44,2.44,0,0,0,65.305,94.452Z" transform="translate(-62.67 -92.339)"/><rect class="n" width="1.805" height="51.22" transform="translate(1.801 4.128) rotate(-3.086)"/><rect class="m" width="1.805" height="51.22" transform="matrix(0.999, -0.054, 0.054, 0.999, 0.902, 4.176)"/></g><g transform="translate(5.258 13.146)"><rect class="o" width="5.816" height="15.788" transform="translate(0.001 0.702) rotate(-6.928)"/><rect class="p" width="5.816" height="36.354" transform="matrix(0.993, -0.121, 0.121, 0.993, 1.905, 16.374)"/><rect class="o" width="5.816" height="1.696" transform="translate(2.021 17.326) rotate(-6.928)"/><rect class="q" width="1.948" height="52.142" transform="translate(0 0.702) rotate(-6.931)"/></g><g transform="translate(3.722 43.756)"><path class="r" d="M85.287,109.715l-3.165,33.706-.241,2.623H62.291l-3.406-36.329Z" transform="translate(-58.885 -109.715)"/><path class="s" d="M83.239,109.715l-3.165,33.706H63.709l-3.165-33.706Z" transform="translate(-56.838 -109.715)"/></g></g><g transform="translate(383.326 217.397)"><g transform="translate(0 4.264)"><path class="t" d="M198.372,128.458s-10.052-5.886-12.232-17.437c0,0,9.469,1.961,14.216,17.437" transform="translate(-186.14 -111.021)"/></g><g transform="translate(14.216 4.264)"><path class="t" d="M194.488,128.458s10.052-5.886,12.232-17.437c0,0-9.469,1.961-14.216,17.437" transform="translate(-192.504 -111.021)"/></g><g transform="translate(7.66 0.078)"><path class="t" d="M195.073,129.825s-7.249-9.118-5.109-20.678c0,0,8.122,5.249,6.958,21.393" transform="translate(-189.569 -109.147)"/></g><g transform="translate(13.475)"><path class="t" d="M194.2,129.9s7.032-9.288,4.62-20.792c0,0-7.995,5.439-6.451,21.552" transform="translate(-192.172 -109.112)"/></g><g transform="translate(3.028 19.358)"><rect class="u" width="21.905" height="18.319"/><rect class="v" width="4.304" height="18.319" transform="translate(17.601)"/></g></g><g transform="translate(409.842 238.366)"><g transform="translate(64.142 47.739)"><path class="w" d="M198.782,263.016s72.9-98.474,50.022-119.505S192.5,196.562,198.782,263.016Z" transform="translate(-196.401 -139.87)"/><path class="x" d="M248.378,146.6c-28.157,41.511-40.088,87.059-45.117,122.782" transform="translate(-203.261 -131.564)"/><path class="y" d="M220.529,152.582a116.6,116.6,0,0,0-18.215,13.6" transform="translate(-173.297 -124.186)"/><path class="y" d="M221.541,155.223a116.457,116.457,0,0,0-18.217,13.6" transform="translate(-176.565 -120.927)"/></g><g transform="translate(0 35.41)"><path class="z" d="M280.122,258.55s-70.281-100.357-46.861-120.778S288.15,192.283,280.122,258.55Z" transform="translate(-228.482 -134.351)"/><path class="x" d="M227.794,141.068C256.91,186.522,267.12,236.155,270.487,273" transform="translate(-216.031 -126.063)"/></g><g transform="translate(52.633 0)"><path class="aa" d="M204.443,242.523s70.734-100.037,47.4-120.566S196.716,176.223,204.443,242.523Z" transform="translate(-199.942 -118.499)"/><path class="x" d="M253.394,125.219c-37.131,57.394-43.971,121.625-44.871,158.134" transform="translate(-208.523 -110.208)"/></g><g transform="translate(29.02 78.641)"><path class="aa" d="M256.8,228.269s-43.528-59.824-29.612-72.409S260.926,188.172,256.8,228.269Z" transform="translate(-224.448 -153.704)"/><path class="x" d="M223.3,157.766c22.89,34.35,27.548,73.075,28.392,95.112" transform="translate(-216.21 -148.691)"/></g><g transform="translate(32.198 150.323)"><path class="ab" d="M212.013,185.793l.344,2.287.719,4.861,6.556,44.006a3.12,3.12,0,0,0,3.087,2.661h36.1a3.12,3.12,0,0,0,3.087-2.661l6.556-44.006.719-4.861.344-2.287Z" transform="translate(-212.013 -185.793)"/><path class="ac" d="M212.167,186.817l.721,4.86H268.27l.721-4.86Z" transform="translate(-211.824 -184.53)"/></g></g><g transform="translate(167.916 71.154)"><g transform="translate(0 210.675)"><path class="l" d="M385.688,323.652h-2.769L400.5,163.095a2.714,2.714,0,0,1,2.7-2.42h90.43a2.714,2.714,0,0,1,2.7,2.42L513.9,323.652h-2.769L491.5,173.324a2.714,2.714,0,0,0-2.691-2.363h-80.8a2.711,2.711,0,0,0-2.691,2.363Z" transform="translate(-382.919 -160.675)"/><path class="l" d="M390.75,188.756H487.5l-3.52-24.941H394.344Z" transform="translate(-373.634 -156.952)"/><rect class="l" width="116.955" height="4.012" transform="translate(7.014 114.462)"/></g><g transform="translate(8.239)"><g transform="translate(108.917 330.431)"><path class="ad" d="M379.622,217.6c.911,5.224-1.246,12.7-1.246,12.7l1.615,9.114,5.479,1.882,13.763-14.283a55.5,55.5,0,0,1-1.244-11.547Z" transform="translate(-375.477 -215.466)"/><path class="ae" d="M365.179,244.662c1.2,1.591,12.817,1.576,15.787,2.957,2.948,1.368,9.87,5.377,16.852,5.934s17.577-.855,19.732-3.005c2.135-2.166.044-6.12.044-6.12s.365-2.559-.887-3.571-7.847-3.15-12.391-6.334-11.25-11.466-15.4-13.632c0,0-1.615-.592-5.3.525s-4.575,5.707-7.737,7.39a4.842,4.842,0,0,1-6.518-1.287c-.8-1.3-1.158-5.18-2.247-4.791-1.071.4-2.988,9.538-2.212,15.523C364.9,238.249,363.979,243.053,365.179,244.662Z" transform="translate(-364.563 -209.221)"/><path class="af" d="M365.179,235.162c1.2,1.591,12.817,1.576,15.787,2.957,2.948,1.368,9.87,5.377,16.852,5.934s17.577-.855,19.732-3.005c2.135-2.166.044-6.12.044-6.12s-2.155,3.58-15.864,2.649c-13.724-.909-15.4-4.072-19.96-5.464S368.5,228.632,364.9,228.75C364.9,228.75,363.979,233.554,365.179,235.162Z" transform="translate(-364.563 -199.722)"/></g><g transform="translate(70.784 331.978)"><path class="ad" d="M396.054,217.127a48.2,48.2,0,0,1-.8,11.49l.8,9.221,5.294,2.361,14.415-12.388a23.428,23.428,0,0,1-2.789-11.637Z" transform="translate(-390.752 -216.174)"/><path class="ae" d="M382.728,243.106c1.051,1.69,12.629,2.7,15.464,4.343,2.817,1.622,9.357,6.229,16.261,7.4s17.584.7,19.92-1.248c2.319-1.967.586-6.091.586-6.091s.59-2.516-.568-3.637c-1.143-1.121-7.536-3.829-11.783-7.4s-10.19-12.417-14.133-14.941c0,0-1.624-1.005-5.329.055-12.721,3.635-15.435-.446-16.554-.155-1.1.306-3.818,9.239-3.574,15.269C383.019,236.7,381.677,241.4,382.728,243.106Z" transform="translate(-382.326 -210.338)"/><path class="af" d="M382.728,234.644c1.051,1.69,12.629,2.7,15.464,4.343,2.817,1.622,9.357,6.229,16.261,7.4s17.584.7,19.92-1.248c2.319-1.967.586-6.091.586-6.091s-2.463,3.375-16.036,1.237c-13.588-2.12-14.985-5.42-19.4-7.208s-12.915-4.642-16.506-4.841C383.019,228.233,381.677,232.934,382.728,234.644Z" transform="translate(-382.326 -201.876)"/></g><g transform="translate(7.934 189.47)"><path class="ag" d="M416.248,197.591c-1.281,5.893-2.994,6.588-3.569,22.394-.99,27.238,4.736,51.643,8.618,73.423,0,0,12.852,3.071,19.608-.551,5.171-37.266,9.359-105.159,5.392-119.97-2.514-9.383-54.806-25.822-63.253-18.32-6.894,6.12-13.905,29.9,2.959,40.564C390.014,197.67,411.626,196.512,416.248,197.591Z" transform="translate(-316.954 -148.969)"/><path class="ag" d="M396,150.975c-3.759,8.745-5.495,23.3-2.061,30.436,2.948,6.124,5.3,8.887,10.12,12.364,9.071,6.542,22.974,8.5,50.172,6.848-11.226,30.335,2.256,74.929,5.211,96.364a23.1,23.1,0,0,0,18.587.321C481.4,253.962,491.71,180.9,484.145,167.5c-4.6-8.144-38.826-16.664-39.919-16.522" transform="translate(-392.088 -150.973)"/><path class="ah" d="M419.513,208.581s2.876-34.757-.245-39.875-13.639-13.4-27.142-16.067" transform="translate(-326.038 -148.998)"/></g><g transform="translate(0)"><path class="ai" d="M373.116,131.722c2.922-.946,10.629-15.468,12.981-14.965,2.249,8.944,4.358,25.236,4.358,25.236.791,5.178,54.607,27.459,54.607,27.459a10.2,10.2,0,0,1-3.486,6.332,25.377,25.377,0,0,1-6.815,3.55s-56.427-12.43-64.355-25.649C370.008,151.037,366.448,133.884,373.116,131.722Z" transform="translate(-292.119 -2.087)"/><path class="aj" d="M393.69,124.51s6.161,14.342,12.616,28.457a14.7,14.7,0,0,1,7.171-2.347c11.962-1.239,17.667-3,20.143-4.041-3.1-12.517-6.616-26.893-7.27-29.859-2.835-12.712-8.671-17.894-8.671-17.894Z" transform="translate(-334.418 -23.333)"/><path class="aj" d="M406.151,220.408c13.953,1.768,38.07-.673,55.488-.037,15.6.568,18.331-5.348,18.331-5.348-.59-22.281-3.482-29.373-2.332-45.941,1.943-27.977,4.424-59.394-1.126-65.634-10.885-8.316-32.894-11.776-55.6-4.712-17.057,5.292-22.449,10.292-21.415,23.114.3,3.744,9.464,57.857,7.145,84.9a12.951,12.951,0,0,1-2.085,5.7C402.816,215.241,404.58,219.344,406.151,220.408Z" transform="translate(-393.196 -27.952)"/><path class="aj" d="M425.406,150.366a138.475,138.475,0,0,0,27.253.962c.424-3.488.846-7.138,1.237-11.376.621-6.29,2.218-14.471,1.338-20.7-1.141-8.441-4.334-21.968-14.537-20.274C422.475,101.977,425.406,150.04,425.406,150.366Z" transform="translate(-425.233 -23.324)"/><g transform="translate(49.064 73.105)"><path class="ak" d="M419.664,101.928a436.68,436.68,0,0,1,9.09,76.138c.238,10.174-11.637,31.5-14.281,32.449s-6.841-21.2-7.984-30.363,9.147-78.223,9.147-78.223" transform="translate(-406.4 -92.76)"/><path class="ak" d="M417.278,98.31a7.326,7.326,0,0,0-4.966-.264c-1.1.49-2.218,3.532-2.387,4.4s2.535,3.633,3.4,4.688a14.221,14.221,0,0,0,4.349-.234,14.991,14.991,0,0,0,1.39-4.631A5.283,5.283,0,0,0,417.278,98.31Z" transform="translate(-404.412 -97.733)"/></g><path class="ai" d="M396.6,122.787c.391,9.65-.23,24.685,5.541,32.54,8.963,12.29,77.847,18.239,77.847,18.239s2.391.968,3.759-5.128a9.776,9.776,0,0,0-.09-4.435s-24.766-9.368-40.953-15.479c-9.031-3.41-15.986-3.171-23.124-6.3.75-7.562,1.5-13.169,2.249-19.3A107.263,107.263,0,0,1,396.6,122.787Z" transform="translate(-391.131 5.077)"/><g transform="translate(25.668)"><path class="o" d="M411.229,75.478s3.351,9.532-2.188,12.889c0,0,1.543,4.813-4.085,5.72s-.544-17.468-.544-17.468" transform="translate(-357.53 -51.016)"/><path class="ai" d="M431.966,95.923s.135,2.321.317,4.389a36.2,36.2,0,0,1,.71,4.3c.1,1.13-.21,4.7-.737,5.635-.691,1.222-2.229-.155-3.661.234-13.746,3.759-15.669-4.968-15.669-4.968,1.357-5.184-1.169-18.349-1.169-18.349" transform="translate(-398.967 -37.159)"/><path class="ai" d="M441.553,101.919c-1.056,4.308-3.088,8.55-6.6,11.256a17.078,17.078,0,0,1-13.363,2.848,21.219,21.219,0,0,1-8.7-38.048c6.179-4.489,21.614-8,28.235-3.41C447.861,79.238,443.251,94.973,441.553,101.919Z" transform="translate(-394.059 -54.651)"/><path class="al" d="M409.663,98.7a21.7,21.7,0,0,0,16.9,16.152,17.584,17.584,0,0,0,12.2-2.041c-2.577.374-5.858.822-8.024.422-8.113-1.462-15.444-8.008-17.267-16.067-1.854-8.043,3.276-17.549,9.969-22.418a15.935,15.935,0,0,1,2.212-1.353A20.907,20.907,0,0,0,409.663,98.7Z" transform="translate(-399.039 -53.483)"/><path class="o" d="M458.529,83.887c-.7,5.479-5.829,9.7-11.125,10.43-5.409.741-15.914.719-19.511-3.392-.122,5.405-9.91,15.682-14.863,17.293.26,3.589.719,5.7,1.2,8.883-2.492,1.224-6.229-2.168-7.656-4.548s-6.76-17.186-5.392-23.8,4.249-12.216,11-11.862a13.9,13.9,0,0,1,25.288-6.612c-.275-.4,3.821-1.2,4.135-1.255a12.56,12.56,0,0,1,5.075.057,16.564,16.564,0,0,1,8.142,4.942,13.623,13.623,0,0,1,3.742,7.757A9.323,9.323,0,0,1,458.529,83.887Z" transform="translate(-400.959 -64.286)"/><path class="ai" d="M425.957,81.455a2.214,2.214,0,0,0-.776-1.537c-1.005-.846-4-2.317-6.052.634-1.805,2.594-1.231,13.422,3.329,10.117C426.053,88.064,426.1,83.335,425.957,81.455Z" transform="translate(-405.98 -47.083)"/></g><path class="am" d="M416.488,92.905a38,38,0,0,0-4.385,6.181,65.837,65.837,0,0,0,6.758,5.066,132.965,132.965,0,0,0,13.516,6.911l3.075-7.621S422.4,96.415,416.488,92.905Z" transform="translate(-376.495 -30.353)"/><path class="am" d="M409.2,103.116a36.46,36.46,0,0,1,5.761,6.157,20.655,20.655,0,0,0-.184-10.4s-3.193-4.924-5.552-5.7C409.225,93.18,410.115,100.122,409.2,103.116Z" transform="translate(-350.242 -30.027)"/></g><path class="an" d="M455.119,110.376s.144,19.614-.866,27.258c0,0-16.932,1.753-30.171-.71" transform="translate(-422.353 -9.638)"/><path class="an" d="M401.236,108.982a288.823,288.823,0,0,1-1.7,41.355" transform="translate(-314.947 -11.291)"/></g><g transform="translate(19.015 112.86)"><path class="ao" d="M354.72,189.946H481.459a.743.743,0,0,0,.73-.579l16.438-72.527a.751.751,0,0,0-.732-.918H371.159a.755.755,0,0,0-.732.592L354,189.042A.733.733,0,0,0,354.72,189.946Z" transform="translate(-323.426 -115.922)"/><path class="ap" d="M354,189.042a.738.738,0,0,0,.719.9H475.686a.743.743,0,0,0,.73-.579l16.438-72.527a.751.751,0,0,0-.732-.918H371.154a.755.755,0,0,0-.73.592Z" transform="translate(-317.653 -115.922)"/><path class="ao" d="M419.542,152.116h32.317A2.143,2.143,0,0,0,454,149.974h0a2.144,2.144,0,0,0-2.144-2.144H419.542a2.143,2.143,0,0,0-2.142,2.144h0A2.143,2.143,0,0,0,419.542,152.116Z" transform="translate(-417.4 -78.089)"/><ellipse class="ao" cx="11.336" cy="6.918" rx="11.336" ry="6.918" transform="translate(97.32 28.265)"/></g></g><g transform="translate(26.323 255.073)"><path class="l" d="M230.568,305.524H225.1a1.813,1.813,0,0,1-1.754-1.365L181.015,140l-2.421-9.411H203.38L204.958,140l27.4,163.4A1.817,1.817,0,0,1,230.568,305.524Z" transform="translate(161.553 -120.286)"/><path class="l" d="M82.722,130.591,80.3,140,37.972,304.159a1.813,1.813,0,0,1-1.754,1.365H30.748a1.816,1.816,0,0,1-1.787-2.118L56.358,140l1.577-9.411Z" transform="translate(-23.101 -120.286)"/><path class="aq" d="M42.788,130.591H67.575L65.151,140H41.211Z" transform="translate(-7.954 -120.287)"/><path class="aq" d="M204.957,140h-23.94l-2.424-9.411h24.787Z" transform="translate(161.552 -120.287)"/><path class="l" d="M31.477,136.287h393.2a5.154,5.154,0,0,0,5.153-5.156h0a5.154,5.154,0,0,0-5.153-5.153H31.477a5.154,5.154,0,0,0-5.153,5.153h0A5.154,5.154,0,0,0,31.477,136.287Z" transform="translate(-26.322 -125.978)"/><path class="ar" d="M429.83,128.284a5.152,5.152,0,0,1-5.151,5.153H31.476a5.144,5.144,0,0,1-5.153-5.153Z" transform="translate(-26.323 -123.133)"/></g><g transform="translate(89.095 196.295)"><path class="as" d="M340.512,122.914l30.4,2.408,3.013,26.96-1.262,29.375-30.432-.007-9.173-15.966Z" transform="translate(-295.964 -122.914)"/><path class="at" d="M317.463,181.65l-1.376-6.793,2.236-1.72-2.236-2.064,1.118-10.836-1.118-8.335,4.644-13.265V124.29l39.9-1.376-1.2,11.7,1.2,6.274v17.271l1.72,5.867V181.65Z" transform="translate(-316.087 -122.914)"/><path class="au" d="M318.212,130.894l28.036-.5-28.036-.946Z" transform="translate(-313.568 -115.169)"/><path class="au" d="M351.126,128.265l-28.036.573,29.354.8" transform="translate(-307.783 -116.569)"/><path class="au" d="M316.087,136.177h32.68l-32.4,2.066Z" transform="translate(-316.087 -107.188)"/><path class="au" d="M316.567,140.144l34.617-1.107-34.668,3.853Z" transform="translate(-315.579 -103.797)"/><path class="au" d="M318.323,147.012l34.858-.917-37.094-1.147Z" transform="translate(-316.087 -96.788)"/><path class="au" d="M353.491,141.722l-29.928,2.695,29.928-1.347Z" transform="translate(-307.223 -100.614)"/><path class="au" d="M318.212,125.412l34.572,1.843H318.212Z" transform="translate(-313.568 -119.952)"/></g></g></g></svg>